<svg width="330" height="29" viewBox="0 0 330 29" fill="none" xmlns="http://www.w3.org/2000/svg">
        <rect width="330" height="29" rx="10" fill="#D9D9D9" />
        <path d="M35.6667 17.6667L38.6667 20.6667" stroke="#737373" stroke-width="1.5" stroke-linecap="round" stroke-linejoin="round" />
        <path d="M37.3333 13.3333C37.3333 10.0196 34.647 7.33334 31.3333 7.33334C28.0195 7.33334 25.3333 10.0196 25.3333 13.3333C25.3333 16.6471 28.0195 19.3333 31.3333 19.3333C34.647 19.3333 37.3333 16.6471 37.3333 13.3333Z" stroke="#737373" stroke-width="1.5" stroke-linejoin="round" />
        <path d="M64.7031 14.3447H62.1807L62.167 13.2852H64.457C64.8353 13.2852 65.1657 13.2214 65.4482 13.0938C65.7308 12.9661 65.9495 12.7839 66.1045 12.5469C66.264 12.3053 66.3438 12.0182 66.3438 11.6855C66.3438 11.321 66.2731 11.0247 66.1318 10.7969C65.9951 10.5645 65.7832 10.3958 65.4961 10.291C65.2135 10.1816 64.8535 10.127 64.416 10.127H62.4746V19H61.1553V9.04688H64.416C64.9264 9.04688 65.3822 9.09928 65.7832 9.2041C66.1842 9.30436 66.5238 9.46387 66.8018 9.68262C67.0843 9.89681 67.2985 10.1702 67.4443 10.5029C67.5902 10.8356 67.6631 11.2344 67.6631 11.6992C67.6631 12.1094 67.5583 12.4808 67.3486 12.8135C67.139 13.1416 66.8473 13.4105 66.4736 13.6201C66.1045 13.8298 65.6715 13.9642 65.1748 14.0234L64.7031 14.3447ZM64.6416 19H61.6611L62.4062 17.9268H64.6416C65.0609 17.9268 65.4163 17.8538 65.708 17.708C66.0042 17.5622 66.2298 17.3571 66.3848 17.0928C66.5397 16.8239 66.6172 16.5072 66.6172 16.1426C66.6172 15.7734 66.5511 15.4544 66.4189 15.1855C66.2868 14.9167 66.0794 14.7093 65.7969 14.5635C65.5143 14.4176 65.1497 14.3447 64.7031 14.3447H62.8232L62.8369 13.2852H65.4072L65.6875 13.668C66.166 13.709 66.5716 13.8457 66.9043 14.0781C67.237 14.306 67.4899 14.5977 67.6631 14.9531C67.8408 15.3086 67.9297 15.7005 67.9297 16.1289C67.9297 16.7487 67.793 17.2728 67.5195 17.7012C67.2507 18.125 66.8701 18.4486 66.3779 18.6719C65.8857 18.8906 65.307 19 64.6416 19ZM74.4119 17.291V11.6035H75.6834V19H74.4734L74.4119 17.291ZM74.6512 15.7324L75.1775 15.7188C75.1775 16.2109 75.1251 16.6667 75.0203 17.0859C74.9201 17.5007 74.756 17.8607 74.5281 18.166C74.3003 18.4714 74.0018 18.7106 73.6326 18.8838C73.2635 19.0524 72.8146 19.1367 72.2859 19.1367C71.9259 19.1367 71.5955 19.0843 71.2947 18.9795C70.9985 18.8747 70.7433 18.7129 70.5291 18.4941C70.3149 18.2754 70.1486 17.9906 70.0301 17.6396C69.9161 17.2887 69.8592 16.8672 69.8592 16.375V11.6035H71.1238V16.3887C71.1238 16.7214 71.1603 16.9971 71.2332 17.2158C71.3107 17.43 71.4132 17.6009 71.5408 17.7285C71.673 17.8516 71.8188 17.9382 71.9783 17.9883C72.1424 18.0384 72.311 18.0635 72.4842 18.0635C73.0219 18.0635 73.448 17.9609 73.7625 17.7559C74.077 17.5462 74.3025 17.266 74.4393 16.915C74.5805 16.5596 74.6512 16.1654 74.6512 15.7324ZM72.1014 10.5098L73.4275 8.5H74.952L73.1199 10.5098H72.1014ZM82.1178 17.0381C82.1178 16.8558 82.0768 16.6872 81.9947 16.5322C81.9173 16.3727 81.7555 16.2292 81.5094 16.1016C81.2678 15.9694 80.9033 15.8555 80.4156 15.7598C80.0055 15.6732 79.634 15.5706 79.3014 15.4521C78.9732 15.3337 78.693 15.1901 78.4605 15.0215C78.2327 14.8529 78.0572 14.6546 77.9342 14.4268C77.8111 14.1989 77.7496 13.9323 77.7496 13.627C77.7496 13.3353 77.8134 13.0596 77.941 12.7998C78.0732 12.54 78.2577 12.3099 78.4947 12.1094C78.7363 11.9089 79.0257 11.7516 79.3629 11.6377C79.7001 11.5238 80.0761 11.4668 80.4908 11.4668C81.0833 11.4668 81.5891 11.5716 82.0084 11.7812C82.4277 11.9909 82.749 12.2712 82.9723 12.6221C83.1956 12.9684 83.3072 13.3535 83.3072 13.7773H82.0426C82.0426 13.5723 81.9811 13.374 81.858 13.1826C81.7395 12.9867 81.5641 12.8249 81.3316 12.6973C81.1038 12.5697 80.8235 12.5059 80.4908 12.5059C80.1399 12.5059 79.8551 12.5605 79.6363 12.6699C79.4221 12.7747 79.2649 12.9092 79.1646 13.0732C79.0689 13.2373 79.0211 13.4105 79.0211 13.5928C79.0211 13.7295 79.0439 13.8525 79.0895 13.9619C79.1396 14.0667 79.2262 14.1647 79.3492 14.2559C79.4723 14.3424 79.6454 14.4245 79.8687 14.502C80.0921 14.5794 80.3769 14.6569 80.7232 14.7344C81.3294 14.8711 81.8284 15.0352 82.2203 15.2266C82.6122 15.418 82.9039 15.6527 83.0953 15.9307C83.2867 16.2087 83.3824 16.5459 83.3824 16.9424C83.3824 17.266 83.3141 17.5622 83.1773 17.8311C83.0452 18.0999 82.8515 18.3324 82.5963 18.5283C82.3456 18.7197 82.0449 18.8701 81.6939 18.9795C81.3476 19.0843 80.9579 19.1367 80.525 19.1367C79.8733 19.1367 79.3219 19.0205 78.8707 18.7881C78.4195 18.5557 78.0777 18.2549 77.8453 17.8857C77.6129 17.5166 77.4967 17.127 77.4967 16.7168H78.7682C78.7864 17.0632 78.8867 17.3389 79.0689 17.5439C79.2512 17.7445 79.4745 17.888 79.7389 17.9746C80.0032 18.0566 80.2652 18.0977 80.525 18.0977C80.8714 18.0977 81.1607 18.0521 81.3932 17.9609C81.6301 17.8698 81.8102 17.7445 81.9332 17.585C82.0562 17.4255 82.1178 17.2432 82.1178 17.0381ZM89.8988 21.8438V13.0254L90.0082 11.6035H91.1703V21.8438H89.8988ZM84.9291 15.3838V15.2402C84.9291 14.6751 84.9952 14.1624 85.1273 13.7021C85.2595 13.2373 85.4532 12.8385 85.7084 12.5059C85.9636 12.1732 86.2712 11.918 86.6313 11.7402C86.9958 11.5579 87.4105 11.4668 87.8754 11.4668C88.3402 11.4668 88.7481 11.5488 89.099 11.7129C89.4545 11.8724 89.7553 12.1071 90.0014 12.417C90.252 12.7223 90.4503 13.0915 90.5961 13.5244C90.7419 13.9574 90.8422 14.4473 90.8969 14.9941V15.623C90.8467 16.1654 90.7488 16.653 90.6029 17.0859C90.4571 17.5189 90.2589 17.888 90.0082 18.1934C89.7621 18.4987 89.459 18.7334 89.099 18.8975C88.7436 19.057 88.3311 19.1367 87.8617 19.1367C87.406 19.1367 86.9958 19.0433 86.6313 18.8564C86.2712 18.6696 85.9636 18.4076 85.7084 18.0703C85.4577 17.7331 85.2641 17.3366 85.1273 16.8809C84.9952 16.4206 84.9291 15.9215 84.9291 15.3838ZM86.2006 15.2402V15.3838C86.2006 15.7529 86.2393 16.1016 86.3168 16.4297C86.3943 16.7533 86.5128 17.0404 86.6723 17.291C86.8363 17.5417 87.0414 17.7399 87.2875 17.8857C87.5382 18.027 87.8344 18.0977 88.1762 18.0977C88.5954 18.0977 88.9441 18.0065 89.2221 17.8242C89.5046 17.6419 89.7302 17.4027 89.8988 17.1064C90.0674 16.8057 90.1973 16.4844 90.2885 16.1426V14.4951C90.2383 14.2445 90.1586 14.0007 90.0492 13.7637C89.9444 13.5267 89.8077 13.3148 89.6391 13.1279C89.4704 12.9365 89.2654 12.7861 89.0238 12.6768C88.7868 12.5628 88.5089 12.5059 88.1898 12.5059C87.8435 12.5059 87.545 12.5788 87.2943 12.7246C87.0437 12.8704 86.8363 13.071 86.6723 13.3262C86.5128 13.5768 86.3943 13.8662 86.3168 14.1943C86.2393 14.5225 86.2006 14.8711 86.2006 15.2402ZM97.926 17.291V11.6035H99.1975V19H97.9875L97.926 17.291ZM98.1652 15.7324L98.6916 15.7188C98.6916 16.2109 98.6392 16.6667 98.5344 17.0859C98.4341 17.5007 98.2701 17.8607 98.0422 18.166C97.8143 18.4714 97.5158 18.7106 97.1467 18.8838C96.7775 19.0524 96.3286 19.1367 95.8 19.1367C95.44 19.1367 95.1096 19.0843 94.8088 18.9795C94.5126 18.8747 94.2574 18.7129 94.0432 18.4941C93.829 18.2754 93.6626 17.9906 93.5441 17.6396C93.4302 17.2887 93.3732 16.8672 93.3732 16.375V11.6035H94.6379V16.3887C94.6379 16.7214 94.6743 16.9971 94.7473 17.2158C94.8247 17.43 94.9273 17.6009 95.0549 17.7285C95.187 17.8516 95.3329 17.9382 95.4924 17.9883C95.6564 18.0384 95.8251 18.0635 95.9982 18.0635C96.536 18.0635 96.9621 17.9609 97.2766 17.7559C97.591 17.5462 97.8166 17.266 97.9533 16.915C98.0946 16.5596 98.1652 16.1654 98.1652 15.7324ZM104.395 19.1367C103.88 19.1367 103.412 19.0501 102.993 18.877C102.578 18.6992 102.221 18.4508 101.92 18.1318C101.624 17.8128 101.396 17.4346 101.236 16.9971C101.077 16.5596 100.997 16.0811 100.997 15.5615V15.2744C100.997 14.6729 101.086 14.1374 101.264 13.668C101.441 13.194 101.683 12.793 101.988 12.4648C102.294 12.1367 102.64 11.8883 103.027 11.7197C103.415 11.5511 103.816 11.4668 104.23 11.4668C104.759 11.4668 105.215 11.5579 105.598 11.7402C105.985 11.9225 106.302 12.1777 106.548 12.5059C106.794 12.8294 106.976 13.2122 107.095 13.6543C107.213 14.0918 107.272 14.5703 107.272 15.0898V15.6572H101.749V14.625H106.008V14.5293C105.99 14.2012 105.921 13.8822 105.803 13.5723C105.689 13.2624 105.507 13.0072 105.256 12.8066C105.005 12.6061 104.663 12.5059 104.23 12.5059C103.943 12.5059 103.679 12.5674 103.438 12.6904C103.196 12.8089 102.989 12.9867 102.815 13.2236C102.642 13.4606 102.508 13.75 102.412 14.0918C102.316 14.4336 102.269 14.8278 102.269 15.2744V15.5615C102.269 15.9124 102.316 16.2428 102.412 16.5527C102.512 16.8581 102.656 17.127 102.843 17.3594C103.034 17.5918 103.264 17.7741 103.533 17.9062C103.807 18.0384 104.117 18.1045 104.463 18.1045C104.91 18.1045 105.288 18.0133 105.598 17.8311C105.908 17.6488 106.179 17.4049 106.411 17.0996L107.177 17.708C107.017 17.9495 106.814 18.1797 106.568 18.3984C106.322 18.6172 106.019 18.7949 105.659 18.9316C105.304 19.0684 104.882 19.1367 104.395 19.1367ZM113.611 17.5645V8.5H114.883V19H113.721L113.611 17.5645ZM108.635 15.3838V15.2402C108.635 14.6751 108.703 14.1624 108.84 13.7021C108.981 13.2373 109.179 12.8385 109.434 12.5059C109.694 12.1732 110.002 11.918 110.357 11.7402C110.717 11.5579 111.118 11.4668 111.56 11.4668C112.025 11.4668 112.431 11.5488 112.777 11.7129C113.128 11.8724 113.424 12.1071 113.666 12.417C113.912 12.7223 114.106 13.0915 114.247 13.5244C114.388 13.9574 114.486 14.4473 114.541 14.9941V15.623C114.491 16.1654 114.393 16.653 114.247 17.0859C114.106 17.5189 113.912 17.888 113.666 18.1934C113.424 18.4987 113.128 18.7334 112.777 18.8975C112.426 19.057 112.016 19.1367 111.547 19.1367C111.114 19.1367 110.717 19.0433 110.357 18.8564C110.002 18.6696 109.694 18.4076 109.434 18.0703C109.179 17.7331 108.981 17.3366 108.84 16.8809C108.703 16.4206 108.635 15.9215 108.635 15.3838ZM109.906 15.2402V15.3838C109.906 15.7529 109.943 16.0993 110.015 16.4229C110.093 16.7464 110.211 17.0312 110.371 17.2773C110.53 17.5234 110.733 17.7171 110.979 17.8584C111.225 17.9951 111.519 18.0635 111.861 18.0635C112.28 18.0635 112.624 17.9746 112.893 17.7969C113.167 17.6191 113.386 17.3844 113.55 17.0928C113.714 16.8011 113.841 16.4844 113.932 16.1426V14.4951C113.878 14.2445 113.798 14.0029 113.693 13.7705C113.593 13.5335 113.461 13.3239 113.297 13.1416C113.137 12.9548 112.939 12.8066 112.702 12.6973C112.47 12.5879 112.194 12.5332 111.875 12.5332C111.528 12.5332 111.23 12.6061 110.979 12.752C110.733 12.8932 110.53 13.0892 110.371 13.3398C110.211 13.5859 110.093 13.873 110.015 14.2012C109.943 14.5247 109.906 14.8711 109.906 15.2402ZM121.413 17.7354V13.9277C121.413 13.6361 121.353 13.3831 121.235 13.1689C121.121 12.9502 120.948 12.7816 120.715 12.6631C120.483 12.5446 120.196 12.4854 119.854 12.4854C119.535 12.4854 119.255 12.54 119.013 12.6494C118.776 12.7588 118.589 12.9023 118.453 13.0801C118.321 13.2578 118.254 13.4492 118.254 13.6543H116.99C116.99 13.39 117.058 13.1279 117.195 12.8682C117.332 12.6084 117.528 12.3737 117.783 12.1641C118.043 11.9499 118.352 11.7812 118.713 11.6582C119.077 11.5306 119.483 11.4668 119.929 11.4668C120.467 11.4668 120.941 11.5579 121.351 11.7402C121.766 11.9225 122.089 12.1982 122.322 12.5674C122.559 12.932 122.677 13.39 122.677 13.9414V17.3867C122.677 17.6328 122.698 17.8949 122.739 18.1729C122.784 18.4508 122.851 18.6901 122.937 18.8906V19H121.618C121.554 18.8542 121.504 18.6605 121.467 18.4189C121.431 18.1729 121.413 17.945 121.413 17.7354ZM121.631 14.5156L121.645 15.4043H120.367C120.007 15.4043 119.685 15.4339 119.403 15.4932C119.12 15.5479 118.883 15.6322 118.692 15.7461C118.501 15.86 118.355 16.0036 118.254 16.1768C118.154 16.3454 118.104 16.5436 118.104 16.7715C118.104 17.0039 118.157 17.2158 118.261 17.4072C118.366 17.5986 118.523 17.7513 118.733 17.8652C118.947 17.9746 119.209 18.0293 119.519 18.0293C119.907 18.0293 120.248 17.9473 120.545 17.7832C120.841 17.6191 121.075 17.4186 121.249 17.1816C121.426 16.9447 121.522 16.7145 121.536 16.4912L122.076 17.0996C122.044 17.291 121.957 17.5029 121.816 17.7354C121.675 17.9678 121.486 18.1911 121.249 18.4053C121.016 18.6149 120.738 18.7904 120.415 18.9316C120.096 19.0684 119.736 19.1367 119.335 19.1367C118.833 19.1367 118.393 19.0387 118.015 18.8428C117.642 18.6468 117.35 18.3848 117.14 18.0566C116.935 17.724 116.833 17.3525 116.833 16.9424C116.833 16.5459 116.91 16.1973 117.065 15.8965C117.22 15.5911 117.443 15.3382 117.735 15.1377C118.027 14.9326 118.378 14.7777 118.788 14.6729C119.198 14.568 119.656 14.5156 120.162 14.5156H121.631Z" fill="#737373" />
      </svg>