<svg width="20" height="20" viewBox="0 0 20 20" fill="none" xmlns="http://www.w3.org/2000/svg">
<path d="M2.10819 12.308C1.93098 13.4697 2.72325 14.276 3.69329 14.6779C7.41226 16.2185 12.5876 16.2185 16.3065 14.6779C17.2766 14.276 18.0688 13.4697 17.8917 12.308C17.7828 11.5941 17.2443 10.9996 16.8453 10.4191C16.3227 9.64944 16.2708 8.80985 16.2707 7.91669C16.2707 4.4649 13.4632 1.66669 9.99992 1.66669C6.53669 1.66669 3.72919 4.4649 3.72919 7.91669C3.72911 8.80985 3.67719 9.64944 3.15459 10.4191C2.75562 10.9996 2.21709 11.5941 2.10819 12.308Z" stroke="#FAFAFA" stroke-width="1.5" stroke-linecap="round" stroke-linejoin="round"/>
<path d="M6.66675 15.8333C7.04882 17.271 8.39633 18.3333 10.0001 18.3333C11.6038 18.3333 12.9513 17.271 13.3334 15.8333" stroke="#FAFAFA" stroke-width="1.5" stroke-linecap="round" stroke-linejoin="round"/>
</svg>
