<svg width="24" height="25" viewBox="0 0 24 25" fill="none" xmlns="http://www.w3.org/2000/svg">
<path d="M11.9959 18.6416V15.6416" stroke="#FAFAFA" stroke-width="1.5" stroke-linecap="round"/>
<path d="M2.3483 13.8551C1.99532 11.5578 1.81883 10.4092 2.25309 9.39098C2.68735 8.37272 3.6508 7.67603 5.57771 6.28266L7.01741 5.2416C9.41446 3.50827 10.613 2.6416 11.9959 2.6416C13.3788 2.6416 14.5773 3.50827 16.9744 5.2416L18.414 6.28266C20.341 7.67603 21.3044 8.37272 21.7387 9.39098C22.173 10.4092 21.9965 11.5578 21.6435 13.8551L21.3425 15.814C20.8421 19.0705 20.5919 20.6988 19.4241 21.6702C18.2564 22.6416 16.549 22.6416 13.1346 22.6416H10.8572C7.44272 22.6416 5.73547 22.6416 4.56768 21.6702C3.39989 20.6988 3.1497 19.0705 2.64931 15.814L2.3483 13.8551Z" stroke="#FAFAFA" stroke-width="1.5" stroke-linejoin="round"/>
</svg>
