<svg width="25" height="25" viewBox="0 0 25 25" fill="none" xmlns="http://www.w3.org/2000/svg">
<path d="M7.88513 17.5238V13.5238" stroke="#FAFAFA" stroke-width="1.5" stroke-linecap="round"/>
<path d="M12.8692 17.5238V7.52377" stroke="#FAFAFA" stroke-width="1.5" stroke-linecap="round"/>
<path d="M17.8532 17.5238V11.5238" stroke="#FAFAFA" stroke-width="1.5" stroke-linecap="round"/>
<path d="M3.39948 12.5238C3.39948 8.04543 3.39947 5.80626 4.78628 4.41501C6.17309 3.02377 8.40511 3.02377 12.8692 3.02377C17.3332 3.02377 19.5652 3.02377 20.9521 4.41501C22.3388 5.80626 22.3388 8.04543 22.3388 12.5238C22.3388 17.0021 22.3388 19.2413 20.9521 20.6326C19.5652 22.0238 17.3332 22.0238 12.8692 22.0238C8.40511 22.0238 6.17309 22.0238 4.78628 20.6326C3.39947 19.2413 3.39948 17.0021 3.39948 12.5238Z" stroke="#FAFAFA" stroke-width="1.5" stroke-linejoin="round"/>
</svg>
