<svg width="25" height="25" viewBox="0 0 25 25" fill="none" xmlns="http://www.w3.org/2000/svg">
<path d="M22.8372 6.78993H20.0572C19.4581 6.78993 19.1584 6.78993 18.8759 6.70411C18.5934 6.6183 18.3441 6.45158 17.8455 6.11813C17.0977 5.61796 16.2445 5.04738 15.8207 4.91865C15.397 4.78993 14.9475 4.78993 14.0487 4.78993C12.8264 4.78993 12.0385 4.78993 11.489 5.01829C10.9394 5.24665 10.5073 5.6802 9.64295 6.54729L8.8823 7.31037C8.68752 7.50578 8.59012 7.60349 8.52999 7.69995C8.3071 8.05754 8.33181 8.51698 8.59173 8.84844C8.66186 8.93786 8.76917 9.02449 8.98377 9.19775C9.77701 9.83817 10.9206 9.77425 11.6389 9.04935L12.8692 7.80779H13.866L19.8468 13.8435C20.3973 14.3991 20.3973 15.2998 19.8468 15.8554C19.2963 16.411 18.4037 16.411 17.8532 15.8554L17.3548 15.3524M17.3548 15.3524L14.3644 12.3346M17.3548 15.3524C17.9053 15.908 17.9053 16.8088 17.3548 17.3643C16.8043 17.9199 15.9117 17.9199 15.3612 17.3643L14.3644 16.3584M14.3644 16.3584C14.9149 16.9139 14.9149 17.8147 14.3644 18.3703C13.8138 18.9258 12.9213 18.9258 12.3707 18.3703L10.8755 16.8613M14.3644 16.3584L12.3707 14.3584M10.8755 16.8613L10.3771 16.3584M10.8755 16.8613C11.4261 17.4169 11.4261 18.3177 10.8755 18.8733C10.325 19.4288 9.43244 19.4288 8.88191 18.8733L6.0673 15.9908C5.48893 15.3985 5.19974 15.1024 4.82924 14.9461C4.45874 14.7899 4.04548 14.7899 3.21898 14.7899H2.90106" stroke="#FAFAFA" stroke-width="1.5" stroke-linecap="round" stroke-linejoin="round"/>
<path d="M22.8372 14.7899H20.3452" stroke="#FAFAFA" stroke-width="1.5" stroke-linecap="round"/>
<path d="M9.38032 6.78993H2.90106" stroke="#FAFAFA" stroke-width="1.5" stroke-linecap="round"/>
</svg>
