<svg width="21" height="21" viewBox="0 0 21 21" fill="none" xmlns="http://www.w3.org/2000/svg">
<path d="M13.125 15.4219C13.0606 17.0423 11.7102 18.4182 9.90115 18.3739C9.48028 18.3636 8.96009 18.217 7.91973 17.9235C5.41591 17.2172 3.24236 16.0303 2.72087 13.3713C2.625 12.8826 2.625 12.3326 2.625 11.2326V9.76736C2.625 8.66741 2.625 8.11742 2.72087 7.62865C3.24236 4.96969 5.41591 3.78276 7.91973 3.07652C8.96009 2.78306 9.48028 2.63633 9.90115 2.62604C11.7102 2.58178 13.0606 3.95768 13.125 5.57813" stroke="white" stroke-width="1.5" stroke-linecap="round"/>
<path d="M18.375 10.5H8.75M18.375 10.5C18.375 9.88732 16.63 8.74259 16.1875 8.3125M18.375 10.5C18.375 11.1127 16.63 12.2574 16.1875 12.6875" stroke="white" stroke-width="1.5" stroke-linecap="round" stroke-linejoin="round"/>
</svg>
