<svg width="25" height="25" viewBox="0 0 25 25" fill="none" xmlns="http://www.w3.org/2000/svg">
<path d="M2.51477 12.0399C2.51477 7.56156 2.51477 5.32239 3.91423 3.93114C5.31369 2.5399 7.56608 2.5399 12.0709 2.5399C16.5756 2.5399 18.828 2.5399 20.2275 3.93114C21.627 5.32239 21.627 7.56156 21.627 12.0399C21.627 16.5182 21.627 18.7574 20.2275 20.1487C18.828 21.5399 16.5756 21.5399 12.0709 21.5399C7.56608 21.5399 5.31369 21.5399 3.91423 20.1487C2.51477 18.7574 2.51477 16.5182 2.51477 12.0399Z" stroke="#FAFAFA" stroke-width="1.5" stroke-linecap="round" stroke-linejoin="round"/>
<path d="M21.627 13.5399H16.6722C15.8251 13.5399 15.1596 14.2435 14.7863 14.9871C14.3807 15.795 13.5686 16.5399 12.0709 16.5399C10.5732 16.5399 9.76104 15.795 9.35547 14.9871C8.98215 14.2435 8.3166 13.5399 7.46952 13.5399H2.51477" stroke="#FAFAFA" stroke-width="1.5" stroke-linejoin="round"/>
</svg>
