<svg width="24" height="25" viewBox="0 0 24 25" fill="none" xmlns="http://www.w3.org/2000/svg">
<path d="M11.9957 22.6411C11.1776 22.6411 10.3961 22.3109 8.83296 21.6506C4.94208 20.0068 2.99664 19.1849 2.99664 17.8024C2.99664 17.4153 2.99664 10.7056 2.99664 7.64105M11.9957 22.6411C12.8138 22.6411 13.5953 22.3109 15.1585 21.6506C19.0494 20.0068 20.9948 19.1849 20.9948 17.8024V7.64105M11.9957 22.6411V11.9959" stroke="#FAFAFA" stroke-width="1.5" stroke-linecap="round" stroke-linejoin="round"/>
<path d="M8.32201 10.3324L5.40111 8.9189C3.79813 8.14315 2.99664 7.75528 2.99664 7.14105C2.99664 6.52682 3.79813 6.13895 5.40111 5.3632L8.32201 3.94967C10.1247 3.07726 11.0261 2.64105 11.9957 2.64105C12.9653 2.64105 13.8667 3.07725 15.6694 3.94967L18.5903 5.3632C20.1932 6.13895 20.9948 6.52682 20.9948 7.14105C20.9948 7.75528 20.1932 8.14315 18.5903 8.9189L15.6694 10.3324C13.8667 11.2049 12.9653 11.6411 11.9957 11.6411C11.0261 11.6411 10.1247 11.2049 8.32201 10.3324Z" stroke="#FAFAFA" stroke-width="1.5" stroke-linecap="round" stroke-linejoin="round"/>
<path d="M5.99634 12.6411L7.99613 13.6411" stroke="#FAFAFA" stroke-width="1.5" stroke-linecap="round" stroke-linejoin="round"/>
<path d="M16.9952 4.64105L6.99622 9.64105" stroke="#FAFAFA" stroke-width="1.5" stroke-linecap="round" stroke-linejoin="round"/>
</svg>
