<svg width="25" height="25" viewBox="0 0 25 25" fill="none" xmlns="http://www.w3.org/2000/svg">
<path d="M16.2341 12.9344C16.2341 14.8674 14.6765 16.4344 12.755 16.4344C10.8336 16.4344 9.27594 14.8674 9.27594 12.9344C9.27594 11.0014 10.8336 9.4344 12.755 9.4344C14.6765 9.4344 16.2341 11.0014 16.2341 12.9344Z" stroke="#FAFAFA" stroke-width="1.5"/>
<path d="M21.7122 15.0312C22.231 14.8905 22.4904 14.8201 22.5928 14.6855C22.6953 14.551 22.6953 14.3345 22.6953 13.9016V11.9679C22.6953 11.535 22.6953 11.3185 22.5928 11.184C22.4903 11.0494 22.231 10.979 21.7122 10.8383C19.7734 10.3123 18.56 8.27322 19.0604 6.33558C19.198 5.8027 19.2668 5.53627 19.2011 5.38C19.1354 5.22373 18.9469 5.11605 18.5698 4.90067L16.8554 3.92144C16.4854 3.7101 16.3004 3.60443 16.1344 3.62693C15.9683 3.64943 15.781 3.83744 15.4063 4.21344C13.9558 5.66919 11.5558 5.66913 10.1053 4.21335C9.73062 3.83734 9.5433 3.64934 9.37725 3.62683C9.2112 3.60433 9.0262 3.71 8.65618 3.92134L6.94179 4.90058C6.56475 5.11594 6.37622 5.22362 6.31053 5.37986C6.24482 5.53611 6.3136 5.80258 6.45115 6.33551C6.95127 8.27321 5.73692 10.3123 3.79787 10.8383C3.27909 10.979 3.0197 11.0494 2.91722 11.1839C2.81476 11.3185 2.81476 11.535 2.81476 11.9679V13.9016C2.81476 14.3345 2.81476 14.551 2.91722 14.6855C3.01968 14.8201 3.27908 14.8905 3.79787 15.0312C5.7366 15.5572 6.94998 17.5963 6.44963 19.5339C6.31203 20.0668 6.24322 20.3332 6.30892 20.4895C6.37462 20.6458 6.56315 20.7535 6.94021 20.9688L8.65461 21.9481C9.02465 22.1594 9.20966 22.2651 9.37573 22.2426C9.54179 22.2201 9.72908 22.032 10.1037 21.656C11.5549 20.1991 13.9566 20.199 15.408 21.6559C15.7825 22.032 15.9698 22.22 16.1359 22.2425C16.3019 22.265 16.487 22.1593 16.857 21.948L18.5714 20.9687C18.9485 20.7534 19.1371 20.6457 19.2027 20.4894C19.2684 20.3331 19.1996 20.0667 19.0619 19.5338C18.5613 17.5963 19.7737 15.5573 21.7122 15.0312Z" stroke="#FAFAFA" stroke-width="1.5" stroke-linecap="round"/>
</svg>
