<svg width="25" height="25" viewBox="0 0 25 25" fill="none" xmlns="http://www.w3.org/2000/svg">
<path d="M15.2371 17.5299V7.52992H8.23798C5.88123 7.52992 4.70285 7.52992 3.9707 8.26214C3.23853 8.99437 3.23852 10.1728 3.2385 12.5299L3.23846 16.5299C3.23844 18.8869 3.23843 20.0654 3.97059 20.7977C4.70275 21.5299 5.88115 21.5299 8.23794 21.5299H11.2376C13.123 21.5299 14.0657 21.5299 14.6514 20.9441C15.2371 20.3583 15.2371 19.4155 15.2371 17.5299Z" stroke="#FAFAFA" stroke-width="1.5" stroke-linecap="round" stroke-linejoin="round"/>
<path d="M15.237 16.5299H17.2368C19.5936 16.5299 20.7721 16.5299 21.5042 15.7977C22.2363 15.0654 22.2363 13.8869 22.2363 11.5299V7.52992C22.2363 5.1729 22.2363 3.99439 21.5042 3.26215C20.7721 2.52992 19.5936 2.52992 17.2368 2.52992H10.2377L10.2379 7.52992" stroke="#FAFAFA" stroke-width="1.5" stroke-linecap="round" stroke-linejoin="round"/>
<path d="M6.23816 12.5299H9.73779M6.23816 16.5299H12.2376" stroke="#FAFAFA" stroke-width="1.5" stroke-linecap="round" stroke-linejoin="round"/>
<path d="M10.2377 2.52992L15.2372 7.52992" stroke="#FAFAFA" stroke-width="1.5" stroke-linecap="round" stroke-linejoin="round"/>
</svg>
