<svg width="24" height="25" viewBox="0 0 24 25" fill="none" xmlns="http://www.w3.org/2000/svg">
<path d="M13.3961 15.0102H6.44383C4.69592 15.0102 3.82197 15.0102 3.27897 14.4244C2.73596 13.8386 2.73596 12.8958 2.73596 11.0102V7.01019C2.73596 5.12457 2.73596 4.18176 3.27897 3.59598C3.82197 3.01019 4.69592 3.01019 6.44383 3.01019H17.5674C19.3153 3.01019 20.1893 3.01019 20.7323 3.59598C21.2753 4.18176 21.2753 5.12457 21.2753 7.01019V12.0102C21.2753 12.9421 21.2753 13.408 21.1342 13.7756C20.946 14.2656 20.5851 14.655 20.1309 14.858C19.7901 15.0102 19.3582 15.0102 18.4944 15.0102" stroke="#FAFAFA" stroke-width="2" stroke-linecap="round" stroke-linejoin="round"/>
<path d="M13.8595 9.01019C13.8595 10.1147 13.0295 11.0102 12.0056 11.0102C10.9817 11.0102 10.1517 10.1147 10.1517 9.01019C10.1517 7.90562 10.9817 7.01019 12.0056 7.01019C13.0295 7.01019 13.8595 7.90562 13.8595 9.01019Z" stroke="#FAFAFA" stroke-width="2" stroke-linecap="round" stroke-linejoin="round"/>
<path d="M12.9326 17.0102C12.9326 15.3533 14.1776 14.0102 15.7135 14.0102V12.0102C15.7135 10.3533 16.9585 9.01019 18.4944 9.01019V14.5102C18.4944 16.8448 18.4944 18.0121 18.0566 18.8958C17.7109 19.5935 17.1812 20.165 16.5344 20.5379C15.7153 21.0102 14.6332 21.0102 12.4691 21.0102H12.0056C10.278 21.0102 9.41417 21.0102 8.73278 20.7057C7.82424 20.2997 7.10242 19.521 6.72609 18.5409C6.44385 17.8058 6.44385 16.874 6.44385 15.0102" stroke="#FAFAFA" stroke-width="2" stroke-linecap="round" stroke-linejoin="round"/>
</svg>
