<svg width="21" height="21" viewBox="0 0 21 21" fill="none" xmlns="http://www.w3.org/2000/svg">
<path d="M5.75538 13.5464C4.51745 14.2835 1.27169 15.7886 3.24858 17.672C4.21427 18.592 5.28981 19.25 6.64201 19.25H14.358C15.7102 19.25 16.7857 18.592 17.7514 17.672C19.7283 15.7886 16.4826 14.2835 15.2446 13.5464C12.3417 11.8178 8.65829 11.8178 5.75538 13.5464Z" stroke="white" stroke-width="1.5" stroke-linecap="round" stroke-linejoin="round"/>
<path d="M14.4375 5.6875C14.4375 7.86212 12.6746 9.625 10.5 9.625C8.32538 9.625 6.5625 7.86212 6.5625 5.6875C6.5625 3.51288 8.32538 1.75 10.5 1.75C12.6746 1.75 14.4375 3.51288 14.4375 5.6875Z" stroke="white" stroke-width="1.5"/>
</svg>
