<svg width="46" height="55" viewBox="0 0 46 55" fill="none" xmlns="http://www.w3.org/2000/svg">
<g clip-path="url(#clip0_262_616)">
<path d="M45.7237 21.3579C45.7655 22.6235 45.7973 23.8889 45.8168 25.1551C45.8261 25.7432 45.8388 26.3309 45.8592 26.9187C45.8789 27.4872 45.8895 28.0552 45.8941 28.6239C45.8974 28.8398 45.9038 29.0556 45.9136 29.2712C45.9849 30.9112 45.9849 30.9112 45.5475 31.5106C45.0626 32.0218 44.5085 32.4125 43.9279 32.8046C43.7497 32.9451 43.5725 33.087 43.3975 33.2315C43.1857 33.3959 43.1857 33.3959 42.9696 33.5636C42.2126 34.1568 41.4815 34.7752 40.7571 35.4085C40.0298 36.0441 39.2874 36.6596 38.5406 37.2716C38.2872 37.4809 38.034 37.6902 37.7808 37.8998C37.4107 38.2058 37.0406 38.5118 36.6703 38.8175C35.4952 39.7879 34.3243 40.7633 33.1532 41.7386C32.7445 42.0789 32.3359 42.4191 31.9272 42.7594C31.7804 42.8815 31.7804 42.8815 31.6307 43.0062C30.9537 43.5696 30.2753 44.1311 29.5961 44.6919C29.2143 45.008 28.8348 45.3269 28.4565 45.6472C28.0408 45.4604 27.768 45.2597 27.4609 44.922C27.3804 44.8342 27.2999 44.7463 27.2169 44.6558C27.0912 44.516 27.0912 44.516 26.9629 44.3734C26.8323 44.2301 26.8323 44.2301 26.6991 44.0839C26.2098 43.5454 25.7275 43.0015 25.2556 42.4475C24.8369 41.9666 24.4039 41.4991 23.9732 41.0294C23.4507 40.4593 22.9348 39.8836 22.4216 39.305C21.8133 38.6228 21.1975 37.9476 20.5826 37.2716C19.7859 37.8399 19.0804 38.4704 18.3709 39.1429C17.9045 39.5828 17.4293 40.0009 16.9306 40.4037C16.3262 40.8935 15.7588 41.4117 15.1952 41.948C14.517 42.5933 13.8215 43.1996 13.094 43.7883C12.4825 44.3015 11.9064 44.8521 11.3252 45.3997C10.6873 46.0005 10.0278 46.5746 9.36427 47.1462C9.19841 47.2892 9.03257 47.4323 8.86676 47.5754C8.78302 47.6476 8.69928 47.7198 8.61301 47.7942C8.09619 48.2416 7.58917 48.6976 7.08823 49.1632C6.61129 49.6059 6.12571 50.0277 5.62051 50.437C5.01116 50.9333 4.43728 51.4571 3.86788 51.9987C3.17176 52.6608 2.46194 53.2869 1.71541 53.8909C1.40799 54.1408 1.10889 54.3977 0.811578 54.6598C0.414431 55 0.414431 55 0.276293 55C0.23772 53.698 0.208353 52.3961 0.190408 51.0936C0.18179 50.4886 0.170123 49.884 0.15124 49.2793C0.133098 48.6945 0.123293 48.1102 0.11902 47.5252C0.115979 47.3031 0.110039 47.0811 0.101028 46.8592C0.0300509 45.0376 0.030052 45.0376 0.629344 44.3431C1.032 43.9426 1.4757 43.6077 1.93395 43.2741C2.19109 43.0631 2.44739 42.851 2.70234 42.6372C2.82646 42.5363 2.95057 42.4353 3.07845 42.3313C3.46821 42.0055 3.84107 41.666 4.21323 41.3198C4.82757 40.7484 5.46299 40.2136 6.11263 39.6839C6.5037 39.3561 6.87844 39.0152 7.25227 38.6675C7.86661 38.0961 8.50203 37.5613 9.15167 37.0317C9.54274 36.7038 9.91748 36.363 10.2913 36.0152C10.9056 35.4438 11.5411 34.909 12.1907 34.3794C12.7141 33.9406 13.2105 33.4744 13.7108 33.0091C14.0789 32.6752 14.4559 32.3589 14.8412 32.0455C15.3931 31.5958 15.9198 31.1285 16.4385 30.6409C17.0741 30.0432 17.7312 29.4837 18.408 28.9336C18.9476 28.4823 19.4599 28.0044 19.9734 27.5229C20.7679 26.802 20.7679 26.802 21.2733 26.802C21.4719 26.9874 21.4719 26.9874 21.6877 27.2557C22.1124 27.7685 22.5507 28.2656 23 28.7564C23.5036 29.3088 24 29.8664 24.4872 30.4337C24.9747 30.9974 25.4736 31.5509 25.97 32.1066C26.1772 32.3392 26.3844 32.5719 26.5916 32.8046C26.6935 32.9188 26.7953 33.0331 26.9003 33.1508C27.1151 33.3922 27.3294 33.634 27.5435 33.8761C27.7048 34.0583 27.7048 34.0583 27.8694 34.2441C27.9655 34.353 28.0617 34.4619 28.1608 34.574C28.4804 34.9247 28.8115 35.2614 29.1472 35.5965C29.2853 35.4672 29.2853 35.4672 29.4261 35.3353C30.0795 34.7286 30.7355 34.1356 31.4264 33.5723C31.9492 33.1461 32.4517 32.7059 32.946 32.2462C33.5603 31.6748 34.1957 31.14 34.8454 30.6103C35.2364 30.2825 35.6112 29.9416 35.985 29.5939C36.5993 29.0225 37.2348 28.4877 37.8844 27.9581C38.2755 27.6302 38.6502 27.2894 39.024 26.9416C39.6384 26.3702 40.2738 25.8354 40.9234 25.3058C41.3145 24.9779 41.6893 24.6371 42.0631 24.2894C42.6851 23.711 43.3269 23.1662 43.9851 22.6306C44.4133 22.2763 44.8243 21.9053 45.2322 21.5275C45.4475 21.3579 45.4475 21.3579 45.7237 21.3579Z" fill="#58A85D"/>
<path d="M18.6487 0C21.3382 0 24.0278 0 26.7988 0C26.7988 10.1806 26.7988 20.3612 26.7988 30.8503C26.4341 30.8503 26.0695 30.8503 25.6937 30.8503C25.6937 21.0382 25.6937 11.2261 25.6937 1.11675C23.688 1.11675 21.6822 1.11675 19.6156 1.11675C19.6156 9.54683 19.6156 17.9769 19.6156 26.6624C19.2965 26.6624 18.9775 26.6624 18.6487 26.6624C18.6487 17.8638 18.6487 9.06523 18.6487 0Z" fill="#154C6C"/>
<path d="M0.276245 11.1675C2.96579 11.1675 5.65534 11.1675 8.4264 11.1675C8.4264 19.5976 8.4264 28.0277 8.4264 36.7132C8.06171 36.7132 7.69703 36.7132 7.32129 36.7132C7.32129 28.6056 7.32129 20.498 7.32129 12.1447C5.31552 12.1447 3.30976 12.1447 1.24321 12.1447C1.24321 22.2792 1.24321 32.4137 1.24321 42.8553C0.924113 42.8553 0.605014 42.8553 0.276245 42.8553C0.276245 32.3983 0.276245 21.9414 0.276245 11.1675Z" fill="#154C6C"/>
<path d="M28.042 6.56091C30.7771 6.56091 33.5123 6.56091 36.3303 6.56091C36.3303 13.5169 36.3303 20.4728 36.3303 27.6396C35.9656 27.6396 35.6009 27.6396 35.2252 27.6396C35.2252 21.0522 35.2252 14.4647 35.2252 7.67766C33.2194 7.67766 31.2136 7.67766 29.1471 7.67766C29.1471 16.1077 29.1471 24.5378 29.1471 33.2234C28.7824 33.2234 28.4177 33.2234 28.042 33.2234C28.042 24.4247 28.042 15.6261 28.042 6.56091Z" fill="#154C6C"/>
<path d="M9.80786 4.04822C12.4062 4.04822 15.0046 4.04822 17.6817 4.04822C17.6817 11.9716 17.6817 19.8949 17.6817 28.0584C17.3626 28.0584 17.0435 28.0584 16.7148 28.0584C16.7148 20.4575 16.7148 12.8566 16.7148 5.02538C14.7546 5.02538 12.7944 5.02538 10.7748 5.02538C10.7748 14.8374 10.7748 24.6495 10.7748 34.7589C10.4557 34.7589 10.1366 34.7589 9.80786 34.7589C9.80786 24.6244 9.80786 14.4898 9.80786 4.04822Z" fill="#154C6C"/>
<path d="M37.4354 4.04822C40.1706 4.04822 42.9057 4.04822 45.7237 4.04822C45.7237 9.02334 45.7237 13.9985 45.7237 19.1244C45.4046 19.1244 45.0855 19.1244 44.7567 19.1244C44.7567 14.4717 44.7567 9.81903 44.7567 5.02538C42.7054 5.02538 40.654 5.02538 38.5405 5.02538C38.5405 11.8431 38.5405 18.6609 38.5405 25.6853C38.1758 25.6853 37.8112 25.6853 37.4354 25.6853C37.4354 18.545 37.4354 11.4048 37.4354 4.04822Z" fill="#154C6C"/>
</g>
<defs>
<clipPath id="clip0_262_616">
<rect width="46" height="55" fill="white"/>
</clipPath>
</defs>
</svg>
