<svg width="333" height="393" viewBox="0 0 333 393" fill="none" xmlns="http://www.w3.org/2000/svg">
<g clip-path="url(#clip0_231_4606)">
<path d="M329 152C329.66 152 330.32 152 331 152C331.326 161.049 331.574 170.096 331.725 179.15C331.798 183.356 331.897 187.557 332.056 191.76C333.147 221.222 333.147 221.222 328.021 227.779C325.231 230.481 322.24 232.389 318.757 234.081C315.95 235.549 313.689 237.615 311.313 239.688C309.543 241.126 307.772 242.564 306 244C298.736 249.928 291.495 255.884 284.259 261.846C280.345 265.071 276.427 268.291 272.5 271.5C264.982 277.644 257.493 283.825 250 290C235.375 302.052 220.714 314.057 206 326C202.991 324.662 201.016 323.224 198.793 320.805C198.21 320.175 197.627 319.546 197.027 318.898C196.116 317.897 196.116 317.897 195.188 316.875C194.242 315.849 194.242 315.849 193.278 314.801C189.736 310.944 186.245 307.047 182.828 303.078C179.798 299.633 176.663 296.285 173.545 292.92C169.763 288.835 166.028 284.712 162.313 280.566C157.909 275.68 153.452 270.843 149 266C148.072 266.804 147.144 267.609 146.188 268.438C143.132 271.064 140.015 273.601 136.875 276.125C132.007 280.087 127.413 284.272 122.835 288.559C119.51 291.657 116.113 294.596 112.563 297.438C108.188 300.946 104.08 304.658 100 308.5C95.0904 313.123 90.0553 317.466 84.7891 321.684C80.3627 325.36 76.1921 329.304 71.9844 333.227C67.3665 337.531 62.5925 341.643 57.7891 345.738C56.5884 346.763 55.3879 347.788 54.1876 348.812C53.5814 349.33 52.9752 349.847 52.3507 350.38C48.6094 353.585 44.9389 356.852 41.3126 360.188C37.8599 363.358 34.3448 366.38 30.6876 369.312C25.5863 373.426 20.7957 377.812 16.034 382.308C13.1287 385.047 10.1983 387.753 7.20319 390.395C6.63762 390.894 6.07204 391.394 5.48933 391.909C4.00007 393 4.00007 393 2.00007 393C1.76767 383.638 1.59033 374.277 1.48194 364.912C1.4299 360.563 1.3594 356.216 1.24567 351.868C1.13646 347.666 1.07713 343.466 1.05131 339.263C1.03292 337.665 0.997002 336.068 0.942755 334.471C0.535557 321.979 0.535553 321.979 4.18751 317.044C6.68659 314.773 9.18874 312.862 12.0001 311C12.9888 310.176 13.9775 309.353 14.9962 308.504C15.8018 307.863 16.6075 307.223 17.4376 306.562C22.2115 302.702 26.734 298.626 31.2501 294.469C34.8119 291.271 38.5257 288.286 42.2501 285.281C46.0391 282.138 49.6328 278.798 53.254 275.465C55.9188 273.073 58.6484 270.807 61.4376 268.562C65.4323 265.341 69.2456 261.993 73.0001 258.5C77.6101 254.21 82.3779 250.196 87.2852 246.246C90.1068 243.912 92.806 241.48 95.5001 239C99.9473 234.906 104.547 231.076 109.25 227.281C112.081 224.933 114.794 222.491 117.5 220C121.078 216.707 124.715 213.553 128.5 210.5C133.351 206.586 137.955 202.451 142.551 198.242C150.462 191 150.462 191 154 191C155.473 192.363 155.473 192.363 157.063 194.312C159.968 197.783 162.942 201.162 166 204.5C168.845 207.619 171.672 210.748 174.438 213.938C177.399 217.347 180.442 220.678 183.5 224C187.118 227.929 190.682 231.896 194.184 235.93C199.616 242.121 205.139 248.212 211 254C212.524 252.68 214.047 251.359 215.571 250.039C216.917 248.872 218.264 247.704 219.611 246.537C223.023 243.581 226.434 240.623 229.844 237.664C236.454 231.927 243.08 226.209 249.731 220.519C254.002 216.863 258.254 213.186 262.5 209.5C267.319 205.317 272.151 201.149 277 197C284.362 190.7 291.683 184.352 299 178C301.52 175.812 304.041 173.624 306.563 171.438C307.479 170.642 307.479 170.642 308.414 169.831C313.492 165.432 318.589 161.057 323.698 156.693C326.411 154.415 326.411 154.415 329 152Z" fill="#58A75D"/>
<path d="M2 79C21.47 79 40.94 79 61 79C61 139.39 61 199.78 61 262C58.69 262 56.38 262 54 262C54 203.92 54 145.84 54 86C39.15 86 24.3 86 9 86C9 158.6 9 231.2 9 306C6.69 306 4.38 306 2 306C2 231.09 2 156.18 2 79Z" fill="#F3F4F3"/>
<path d="M135 0C154.47 0 173.94 0 194 0C194 72.6 194 145.2 194 220C191.69 220 189.38 220 187 220C187 149.38 187 78.76 187 6C172.15 6 157.3 6 142 6C142 66.72 142 127.44 142 190C139.69 190 137.38 190 135 190C135 127.3 135 64.6 135 0Z" fill="#F3F4F3"/>
<path d="M71 28C89.81 28 108.62 28 128 28C128 84.76 128 141.52 128 200C125.69 200 123.38 200 121 200C121 145.55 121 91.1 121 35C106.81 35 92.62 35 78 35C78 105.29 78 175.58 78 248C75.69 248 73.38 248 71 248C71 175.4 71 102.8 71 28Z" fill="#F3F4F3"/>
<path d="M204 46C223.47 46 242.94 46 263 46C263 95.83 263 145.66 263 197C260.69 197 258.38 197 256 197C256 149.48 256 101.96 256 53C240.82 53 225.64 53 210 53C210 113.72 210 174.44 210 237C208.02 237 206.04 237 204 237C204 173.97 204 110.94 204 46Z" fill="#F3F4F3"/>
<path d="M271 28C290.8 28 310.6 28 331 28C331 63.64 331 99.28 331 136C328.69 136 326.38 136 324 136C324 102.67 324 69.34 324 35C308.82 35 293.64 35 278 35C278 83.84 278 132.68 278 183C275.69 183 273.38 183 271 183C271 131.85 271 80.7 271 28Z" fill="#F3F4F3"/>
<path d="M12 311C12.66 311.33 13.32 311.66 14 312C10.7 315.3 7.4 318.6 4 322C3.67 321.01 3.34 320.02 3 319C5.97 316.36 8.94 313.72 12 311Z" fill="#8FC492"/>
</g>
<defs>
<clipPath id="clip0_231_4606">
<rect width="333" height="393" fill="white"/>
</clipPath>
</defs>
</svg>
